# xmcd
# 
# Track frame offsets:
#     150
#     24810
#     50695
#     84430
#     106075
#     124457
#     147065
#     174632
#     200895
# 
# Disc length: 2980
# 
# Revision: 1
# Processed by: cddbd v1.5.2PL0 Copyright (c) Steve Scherf et al.
# Submitted via: fre:ac v1.0.27
# 
DISCID=780ba209
DTITLE=Bob Brookmeyer - Traditionalism revisited
DYEAR=1957
DGENRE=Jazz
TTITLE0=Louisiana
TTITLE1=Santas cluas blues
TTITLE2=Truckin'
TTITLE3=Some sweet day
TTITLE4=Sweet like this
TTITLE5=Don't be that way
TTITLE6=Honeysuckle rose
TTITLE7=Slow freight
TTITLE8=The Sheik of araby
EXTD=YEAR: 1957
EXTT0=
EXTT1=
EXTT2=
EXTT3=
EXTT4=
EXTT5=
EXTT6=
EXTT7=
EXTT8=
PLAYORDER=
